PathFileType	3	(X/Y/Z)	results
DataRate	CameraRate	NumFrames	NumMarkers	Units	OrigDataRate	OrigDataStartFrame	OrigNumFrames
30.0	30.0	4	85	mm	30.0	103	410
Frame#	Time	head			nose			neck			shoulder_r			elbow_r			wrist_r			shoulder_l			elbow_l			wrist_l			hip_r			knee_r			ankle_r			hip_l			knee_l			ankle_l			heel_r			heel_l			mtoe_r			ltoe_r			mtoe_l			ltoe_l			asis_l			asis_r			psi_r			psi_l			mhnd_r			lhnd_r			mhnd_l			lhnd_l			l_lat_knee			r_med_wrist			l_lat_ankle			r_med_ankle			r_lat_knee			xiphoid			l_med_ankle			r_med_knee			l_med_elbow			navel			r_lat_elbow			r_lat_wrist			l_med_wrist			l_lat_elbow			l_med_knee			r_med_elbow			r_lat_ankle			l_lat_wrist			chin			T10			r_eye			l_eye			l_ear			r_ear			spinal_cord_8			spinal_cord_12			spinal_cord_27			spinal_cord_33			up_arm_r_0			up_arm_r_5			up_arm_l_0			up_arm_l_5			front_torso_11			front_torso_7			front_torso_4			front_torso_1			front_torso_10			thigh_r_2			thigh_r_3			thigh_l_1			thigh_l_5			shank_l_0			shank_l_4			shank_r_1			shank_r_2			foot_r_1			foot_r_3			foot_r_5			foot_r_6			foot_r_7			foot_l_1			foot_l_7			foot_l_0			foot_l_4			foot_l_5			foot_l_6			
		X1	Y1	Z1	X2	Y2	Z2	X3	Y3	Z3	X4	Y4	Z4	X5	Y5	Z5	X6	Y6	Z6	X7	Y7	Z7	X8	Y8	Z8	X9	Y9	Z9	X10	Y10	Z10	X11	Y11	Z11	X12	Y12	Z12	X13	Y13	Z13	X14	Y14	Z14	X15	Y15	Z15	X16	Y16	Z16	X17	Y17	Z17	X18	Y18	Z18	X19	Y19	Z19	X20	Y20	Z20	X21	Y21	Z21	X22	Y22	Z22	X23	Y23	Z23	X24	Y24	Z24	X25	Y25	Z25	X26	Y26	Z26	X27	Y27	Z27	X28	Y28	Z28	X29	Y29	Z29	X30	Y30	Z30	X31	Y31	Z31	X32	Y32	Z32	X33	Y33	Z33	X34	Y34	Z34	X35	Y35	Z35	X36	Y36	Z36	X37	Y37	Z37	X38	Y38	Z38	X39	Y39	Z39	X40	Y40	Z40	X41	Y41	Z41	X42	Y42	Z42	X43	Y43	Z43	X44	Y44	Z44	X45	Y45	Z45	X46	Y46	Z46	X47	Y47	Z47	X48	Y48	Z48	X49	Y49	Z49	X50	Y50	Z50	X51	Y51	Z51	X52	Y52	Z52	X53	Y53	Z53	X54	Y54	Z54	X55	Y55	Z55	X56	Y56	Z56	X57	Y57	Z57	X58	Y58	Z58	X59	Y59	Z59	X60	Y60	Z60	X61	Y61	Z61	X62	Y62	Z62	X63	Y63	Z63	X64	Y64	Z64	X65	Y65	Z65	X66	Y66	Z66	X67	Y67	Z67	X68	Y68	Z68	X69	Y69	Z69	X70	Y70	Z70	X71	Y71	Z71	X72	Y72	Z72	X73	Y73	Z73	X74	Y74	Z74	X75	Y75	Z75	X76	Y76	Z76	X77	Y77	Z77	X78	Y78	Z78	X79	Y79	Z79	X80	Y80	Z80	X81	Y81	Z81	X82	Y82	Z82	X83	Y83	Z83	X84	Y84	Z84	X85	Y85	Z85	
103	3.433333333333333	741.0734310755776	1194.5238998154948	-1419.2478190217562	707.4361047097243	1005.1150348187313	-1541.6193351718102	749.8118674760169	903.7443690243377	-1351.4117026499086	916.3284922305057	837.7695557365035	-1375.086919276195	970.934952038938	628.9162666414654	-1530.4859325634288	805.7554838576539	755.059612657208	-1626.145415992365	573.9463915496456	835.884651456461	-1341.31590431408	455.29647566395124	648.8699186369964	-1497.1310840261754	624.2054286278825	757.2601643954123	-1609.0479521639868	861.4135577407211	522.4321158583949	-1021.5407263196062	926.0063939076268	438.1745674019637	-1415.452157978382	948.4767470123178	99.21679085579504	-1220.237609865354	663.1849460770661	525.7823174281331	-1019.5513552369841	544.8183808105915	431.82694653416456	-1409.9022019472236	552.5828586835272	101.36673570479593	-1203.2958888415806	946.5029289316224	44.898375189741294	-1185.8564724529874	549.8044968950811	42.2433038924662	-1157.5092718075423	972.7948279867012	36.924021330090525	-1409.3559119672254	1030.1161244742052	29.579703907071522	-1341.3994592755284	545.5590821100559	40.47716628748383	-1384.0637807899486	470.91763041968557	21.656322196370446	-1323.389457670997	618.4114026740741	530.1059645156241	-1098.006276543147	908.7225719837281	526.1458232523187	-1096.2566489644016	814.0308677837638	655.1204443777154	-1018.7312925638574	715.0318174078786	651.6611551897138	-1021.3839154866271	751.4845349791055	768.8720129626709	-1673.5328561013905	751.4583341703676	817.8568948444585	-1651.8643786446937	673.3695438009377	770.6123570362594	-1665.7861714846745	688.8134008428701	811.5370802300536	-1635.0876106896285	502.3806806734407	447.1596900342689	-1382.704789786511	811.6093309250924	733.1941984370644	-1643.9283890819875	502.8001123904573	97.16831258083292	-1179.703034866506	919.7794753842874	77.85167110650282	-1234.875733707011	967.5108812048554	440.4785619831971	-1402.815722203351	755.9312885878043	718.4788322862943	-1318.0051844416732	578.4736892180364	80.80767093373753	-1215.4769666632387	882.7691567888929	438.65336129226836	-1412.066703035613	472.85825477792855	628.979535689684	-1471.0063048285563	762.4803071125698	545.6434368551846	-1193.9483437996394	994.2595215582181	656.9076247651018	-1548.5512166705323	807.6898542306187	766.7448977513262	-1596.6945987490335	606.3883602081246	741.9028261383186	-1630.6989227671847	435.511431126849	684.1956896073739	-1504.8132888948953	597.3924748016693	443.35757249270347	-1405.3460518815864	947.5417988065556	612.5345195168554	-1506.2003526320236	995.7961681971038	91.16419431029371	-1202.7548406383241	621.6011358976003	772.870252068904	-1582.6575965207626	717.3223124293365	924.494212973679	-1520.987282127739	761.7622792187784	847.661903478726	-1178.9675637386529	739.9329983039631	1040.1474733607768	-1552.0622533156022	669.3722822293807	1037.1695759704528	-1529.916518955711	648.6536769379455	1032.0017055776584	-1408.8638034884318	824.6275557774184	1036.1153287028749	-1461.1280369232231	748.5805372358486	978.1533857414437	-1351.3917244240417	754.7257254809925	922.4010532134615	-1240.565111161728	780.7169882588195	724.7334402893772	-1098.1062424924419	761.6588026674764	832.4214553836389	-1182.7423123848812	918.3004246696012	753.9607587418632	-1486.626740277331	983.1406393609383	706.2759197902313	-1446.6942068017972	529.5653362724972	818.5193549165859	-1381.5945276831583	493.8090853147894	671.6488630485192	-1422.6466225416495	813.2556490352712	591.4956307969348	-1184.352074341543	759.9949480042471	634.6174473090966	-1287.3367816627072	685.7569241461633	747.832714338659	-1346.55143564309	687.8918916571469	612.3813494718935	-1201.549665911274	835.5357861682161	775.7036586400798	-1386.0649185592986	877.4023995382961	477.2583038102077	-1230.000002649858	978.5784043629444	473.76665021990607	-1250.1420191330737	628.7135392469322	450.06414789828756	-1293.8162792062953	539.564500416323	542.5215130436958	-1102.4529762605973	482.8378909328893	184.6807556635885	-1245.2178816147932	593.3947163674878	295.634166694981	-1345.356084567385	991.3278530275884	305.27795550830973	-1316.6327387282977	900.7700278387268	250.8606708001615	-1327.390487567225	993.1373203832427	28.662086613367354	-1388.4467942069205	1014.9547366373846	29.386830385956603	-1368.7046446545971	950.4149394508518	48.286184831162416	-1329.0747720779982	985.4964728768285	53.34336362038403	-1311.001606987312	1014.0680502977168	38.51367242478816	-1295.094285529939	499.062794153006	24.426884929691553	-1355.1934715991108	485.2327809502411	53.920628136145645	-1249.091548356707	484.73836541171295	23.344467267765413	-1346.4003281599457	516.702481442065	25.730073129257494	-1365.3505160999932	512.3104159988509	41.334169428842365	-1306.6030112544868	543.7008745437151	55.787937310768285	-1278.8284139592613	
104	3.466666666666667	740.5026814941572	1187.31834142342	-1419.8252819215659	710.9343467324248	997.8120167072487	-1543.0934542178052	747.8135888933114	898.1368916794037	-1351.9592696067396	915.2250192856736	830.1813734196569	-1377.5366786719173	966.9189686432483	623.357465088756	-1536.6027708846173	802.7101702672073	751.641085835306	-1631.0798602060088	573.0661650541454	834.2202757192256	-1343.755423321311	449.91710041592745	644.3095740903051	-1492.412466025227	619.4631274327082	750.2654373088276	-1605.6889636456976	860.8780183087393	518.3767894588968	-1019.5168062282427	927.0778011343536	437.9606293459465	-1414.1181439435775	948.7731108418228	98.3080745844609	-1220.0267571551917	662.6627523237488	522.6365849034507	-1017.9915510914035	543.7902960600522	432.7587616757834	-1409.3199687450517	552.186080388644	102.15951674169477	-1202.960920657367	946.6853957039118	43.84178739102415	-1185.8802191254172	549.5602245037544	42.99245555852029	-1157.2146850770732	974.0149149303044	36.91273800566032	-1409.290020593592	1031.0048504637418	29.14848633250269	-1341.101948794283	544.0670363659669	41.5052590547477	-1383.7443773022596	469.70634094228524	22.824785914804654	-1322.68317138504	618.0755466108944	526.3491643272669	-1096.583768459884	908.3615530195275	521.1050794298635	-1094.16447138342	814.0881231706016	651.2982988329647	-1018.181587325626	715.0803290110839	648.2558834397458	-1021.0127477988826	748.6072209742782	766.3406218568103	-1678.3924620476118	748.8594838946038	815.0749382940503	-1656.1675881545968	668.8005632135736	762.5193767765885	-1662.5244736622324	684.3238684926292	803.8816067218117	-1632.4588745350045	501.44419415620735	448.0441175733292	-1381.8108560429348	808.4529769049288	729.9422203147604	-1649.1014418085392	502.4898145443053	97.96628585725486	-1179.1855275002436	920.261270299248	76.9236046464854	-1234.9952508918661	968.5068541085291	440.28946450044697	-1401.1737895396886	754.5235668167426	713.0501490805426	-1317.68630961222	578.0227492336475	81.59769994873145	-1215.2518579727541	883.8027700223911	438.45397139535925	-1410.7613317222094	467.63669636537367	624.9572217420225	-1465.991832317091	762.1401742253913	540.8364767096211	-1192.8283839220496	990.4782111019953	651.3889743565003	-1554.2974804238584	804.6708514287437	762.9778300100304	-1601.494859383457	601.6387834206951	734.6223861010034	-1627.1283666907561	430.4316612697493	679.6396339047386	-1500.8076365667237	596.4318914818712	444.3102591247764	-1404.5643069543223	943.4432908000539	606.830567480584	-1512.4958246892857	995.9610929920416	90.31371691955175	-1202.1660814023116	616.8567112798974	766.3110152769913	-1579.5613140904677	717.9284131180299	917.1498295722481	-1521.4640706655118	760.8454887253442	842.9221713032832	-1179.3135613835245	744.7010623441643	1032.1482205477312	-1551.6496452778608	672.8430356658841	1030.6637910713418	-1533.9765994962984	644.4583174612457	1026.665847270258	-1414.4439611525065	823.4164880223568	1027.074446924318	-1455.542431456098	746.4197873230727	972.5422899307615	-1352.2944864560232	753.3031251465704	917.3446082997705	-1241.233873586092	780.5182482518074	720.4307933893235	-1097.9619406257052	760.7543232472176	827.6633040396858	-1183.0134737561946	915.8353633260932	748.2226560312213	-1490.4584691483067	980.3048313291957	699.1749467878121	-1451.5905588596465	527.8854086194231	816.2571534978596	-1382.8658385579936	489.80769504276486	668.7242811931616	-1419.182015045734	812.8677847565529	586.8444085995307	-1183.7384357833785	758.9409938445029	629.3483229379431	-1286.6333421854522	684.1275328781389	742.1129220752562	-1345.9835516255241	687.3649706419945	607.3753884575244	-1200.3385737263977	833.6230380480404	770.1139751110928	-1386.4662311307616	877.7049812475983	475.26673511453623	-1228.3467915699216	978.9601173764918	472.09321904349514	-1248.1407964286695	627.8497104383811	449.8115301950046	-1292.9957894716338	539.0085811585845	540.445274349651	-1100.6195763444896	482.32029932676403	185.53010211391106	-1244.5681082289439	592.5497449392516	296.50335684331554	-1345.0446568110794	991.9003437297281	304.8556115555785	-1315.2506957829519	901.5860914675424	250.23945747659872	-1327.0023463040034	994.2461623548635	28.517439670902338	-1388.326162141539	1015.9716597159585	29.11206636882646	-1368.478578963936	951.2755771667727	47.919563471550596	-1329.0604007300076	986.2795542173545	52.83392041992975	-1310.7984449846465	1014.7531601804371	37.88238326842071	-1294.829633084918	497.6843748656581	25.552953650033185	-1354.6379563157102	484.5205429103534	54.960802093781936	-1248.427503687846	483.40537921223637	24.50082101956453	-1345.7675809934126	515.2717114380108	26.818057078221862	-1364.8901524579505	511.2463760064202	42.36533363481725	-1306.1013248451043	542.8296994590578	56.6972589472486	-1278.4826691015976	
105	3.5	738.8173619816749	1186.330128908588	-1420.0562903204172	711.7980440083874	995.9364279646529	-1542.5396399088322	746.1603324273625	898.3380519592135	-1351.1956153256542	914.808185738634	828.8716700671811	-1378.9063916344376	962.0392812468717	625.2677363551794	-1543.4210625405972	796.9043094006805	752.5754407723275	-1637.6034743380442	570.7593133714436	833.8911053194925	-1345.9532383084295	453.57510940273283	644.4231707813431	-1499.902733864595	624.9983104258611	751.2525149416826	-1609.4729967919673	861.1499673294768	519.8411486448098	-1018.5496497293192	926.7080787171627	437.71388964856595	-1412.6582453891447	949.2580734009182	97.45008910771547	-1219.738431409335	662.9074874224059	522.1417121016303	-1016.4542981983826	543.5881717268463	433.94645483909125	-1408.0330430348802	552.254358995147	102.52604854354263	-1203.0066589711182	947.3795469297903	42.84600232227699	-1185.8154563814064	549.7832158614319	43.2893116262599	-1157.4038780563915	973.748464385432	36.84904639590707	-1409.367621323763	1030.9556564247441	28.31545294051023	-1341.4539669266353	542.6416729491827	41.809121703512545	-1383.887642886502	468.64853291228104	23.442596322457643	-1322.2870751813475	618.0545442616478	524.9613989821396	-1094.9323310857242	908.384206474095	522.6131855093064	-1093.3537005017652	813.0447472899587	652.2970907790118	-1017.8313537410942	714.0642013166597	648.2558115860244	-1020.3482261446281	742.7447655548416	767.0199576113375	-1684.929867800477	742.5660609719561	815.6645444636318	-1662.508572356456	675.4238892930315	763.8257061862894	-1665.274364683691	690.2005187954921	805.157685616857	-1634.7937803617722	501.27455989054505	449.1173974567868	-1380.4078564219044	802.8495573485409	730.9975551893039	-1655.7044930115344	502.61203652197617	98.2712872038618	-1179.1297209490585	921.0354755126525	75.91600830730356	-1235.0369523481982	968.1965795470784	439.9688640610384	-1400.0009447766442	752.521807669325	713.2286410924451	-1316.978667512038	578.0479630500141	81.9961283011018	-1215.4405349405934	883.477929157863	438.0385395555661	-1409.4400117032767	470.66956950026787	624.9632796803246	-1473.1512931580928	760.3181506913888	540.9788516212725	-1192.1816710330856	985.4799456833055	653.5177736064937	-1560.9246852745807	798.7323491630816	763.8083704596486	-1607.9704205966975	607.6607793188186	735.6083360802522	-1631.3071438177058	434.05676217119026	679.6759987130256	-1508.5425601244094	596.2362945905409	445.479867049357	-1403.284945087758	938.8853285906722	608.3763350652871	-1519.2556805144143	996.3490024715019	89.732793831933	-1201.5036595399358	621.8139096514326	767.218205084222	-1583.3604638096	717.3161487734445	915.4235907200426	-1519.9482878137253	759.9686196267879	843.0654141241214	-1178.6288078605173	746.1474193597008	1029.8954581412806	-1550.2389298288747	673.7135882792334	1029.202763459267	-1535.041023221457	641.199492545482	1026.5772095683633	-1416.5266044488724	821.4617412058419	1025.041749339877	-1451.432794377731	744.9794838002254	972.7472016704271	-1351.5155807462825	752.3054935423556	917.5166726210922	-1240.499625270224	779.7285253107192	720.5081003175846	-1097.3977036549306	759.8133578242339	827.8073138207826	-1182.3297485225437	912.7420289516781	749.4362185374207	-1493.6002217936639	977.5428927138066	699.0839469209528	-1457.018787491823	526.8928226175653	815.9413196921498	-1386.5381527078898	491.10076420370547	668.4612345391886	-1425.310286956125	811.226870250966	586.8391338488647	-1183.362135276516	756.8659287680823	629.5107222710428	-1285.9587573372505	682.0575684441056	742.4977901021888	-1344.8908186409508	685.695681599944	607.7341458064989	-1199.2794596585165	831.4115939013662	770.0721694621237	-1386.1805396338307	877.658643072582	475.730371226607	-1227.1959753281565	978.8829296287793	472.51898811338134	-1247.1410813637476	627.7808233926077	450.50070827964083	-1291.7295271079347	539.160007639019	540.3076661444239	-1098.8645729493803	482.3454266762624	186.10694482701757	-1244.1164495907933	592.4094782644017	297.4051717342452	-1344.4147047877934	991.666063744711	304.69366790416154	-1313.7655718307483	901.8642639184973	249.45914023989778	-1326.5120787916312	994.0016571023315	28.19733362992812	-1388.5295835402246	1015.8114682202511	28.529753387870162	-1368.7685357290911	951.4180054873096	47.61679972840644	-1328.9908480258412	986.5315482022636	52.17820223427136	-1310.8480514827536	1014.9576688198891	36.93466765025849	-1295.0718677477387	496.4052682391424	26.052050052994847	-1354.4441266101878	484.1343148935158	55.52187584014891	-1248.1439791911084	482.186703827488	25.059980779234046	-1345.4703602365487	513.9229259701741	27.243221318375504	-1364.8236833814162	510.3886567795708	42.811236288822805	-1306.0087767936702	542.230758261864	57.013514555807134	-1278.621253835727	
106	3.533333333333333	737.5675148552185	1192.2150657379166	-1419.6172459391541	709.6985672178436	1000.3575622216938	-1539.6005611599626	744.7445435822327	904.5012896937583	-1349.691754790959	914.4689793438002	834.9678848562445	-1378.610843923294	958.8510241703882	634.7271207410392	-1547.9752015456725	790.9766682550419	758.485498560702	-1642.0453975061534	567.7437773578836	835.9697798980199	-1347.1184145234133	464.39207377410247	650.249959329392	-1514.9196560987298	637.1206326766142	761.6834866940833	-1617.6400487150054	861.1584616866168	526.425044524981	-1018.7708360903929	924.952631872343	437.71808438421124	-1411.1840934330496	949.3357908617854	96.86492496885401	-1219.5318142422968	662.9229844827413	525.886240662225	-1015.2823983151644	544.9584793211318	434.373960896123	-1406.2609602281393	552.4761150189439	101.81113680306414	-1203.0471323081342	947.8081188481407	42.147635448087584	-1185.7889542241119	549.84894627023	42.41353837101632	-1157.7183063123946	972.1243770243274	36.88344323332729	-1409.5921302677393	1029.9080595076678	27.853579735708628	-1342.2329653698866	542.2061049984067	41.45630289980854	-1384.188522911713	468.2134505320236	23.506445614041724	-1322.4646727634124	617.4837553703387	528.130248806452	-1093.4410809759681	907.821222617502	529.9362924972351	-1093.9017979363598	811.1694573262905	658.1782543888929	-1017.5893605487645	712.2416102268247	652.7228625649772	-1019.4155132521167	736.481693508501	771.7671473552742	-1689.3273529134156	735.2940589203853	820.4037552301896	-1666.9194937284499	688.787768346427	776.1414655550109	-1671.825754760828	702.2217229827493	816.9717756657268	-1640.0741884561644	502.4672048996583	449.42524755078796	-1379.0510138748762	797.3608992418731	737.0327917088529	-1660.1457002618824	502.6996248749082	97.42259772952677	-1179.4756856482886	921.1742366799408	75.26583578201257	-1234.851168757424	966.5811737694407	439.8031142480029	-1399.1999917782427	750.3939146916161	719.2551125579776	-1316.0956190157933	578.3403961596326	81.35123721175263	-1215.4495666140842	881.8231266886505	437.759201070739	-1408.2535951982263	480.58018706771986	630.1190059770411	-1488.1010578377898	757.7444789614835	546.56499577181	-1191.8814650845968	981.7715255243063	663.4116756226695	-1565.4609984009362	792.5930373893631	769.7634149202703	-1612.417129480855	620.5603687742416	746.3072998340014	-1640.2540008376504	444.36742419844944	685.316389289314	-1523.1496775367243	597.4996099600846	445.8566148485745	-1401.6437277355535	936.3187860509128	617.2747122971907	-1523.621509126464	996.4956432525978	89.28287605641295	-1201.4188352217293	633.0535037268753	777.0222466097928	-1591.2755089858656	715.6973689415447	920.1241620200409	-1516.1537809797019	758.7188361761332	848.6041950180186	-1177.3395854380549	743.8633893255471	1034.3177325672748	-1548.0767715917239	671.6082667073016	1033.6058119934482	-1532.0515882641346	640.4438498350962	1032.2528190860044	-1413.1538341102864	820.3034630730675	1030.7988761720983	-1450.0819210014681	743.8812694704948	978.9154527287164	-1349.7655091879315	751.2299378817029	923.2901316522102	-1238.948340591224	778.1437520079414	725.6977131912706	-1096.5564764333312	758.4896705727848	833.359123975368	-1181.0900500637647	910.1599781435347	757.7016549724713	-1494.7155245714173	975.981162673408	706.971776450873	-1460.557719766298	526.6366961735827	818.6279668363114	-1390.7425877325322	497.1800079779144	672.052774077278	-1437.462409485022	808.8693517837115	592.1782841044987	-1183.0314520596617	754.4522285281242	635.4180628902893	-1285.3600477834016	679.9905977466944	748.9163248362752	-1343.746400619963	683.3919013441212	613.6612613715266	-1198.5856535259697	829.3644749347568	775.9880401292658	-1385.296122904768	876.7790352757107	478.648125882753	-1226.6769446368396	977.9180982689712	475.0251808394796	-1246.9806544244805	628.7301402350012	451.88270049061896	-1290.0497418078187	539.349381352	543.0364829095452	-1098.1698390025438	482.7979611527007	185.62056665007586	-1244.0833878490566	593.4238573315104	297.47889974426977	-1343.132644142456	990.6738298659834	304.6223552536053	-1312.8991448561164	901.0820585316847	249.05214739076652	-1325.6645765091846	992.5287827805225	28.068218079584355	-1388.9712719222096	1014.5179957734111	28.23450974363938	-1369.4079329044307	950.569031766364	47.4415499488527	-1328.9762939475138	985.8645452849853	51.78700452169988	-1311.13611201931	1014.3676955919893	36.36484395127126	-1295.6756773831492	495.91890873993725	25.97851599778525	-1354.676751474382	484.09541306450575	55.31692844980171	-1248.2895775573058	481.7129026793579	25.072387097746784	-1345.6740529609217	513.4223307047787	27.062402502593766	-1365.0920205394418	510.1301147957366	42.53379404343166	-1306.237583629763	542.1351013551418	56.4446386186181	-1278.8903755987653	
